<svg width="120" height="36" viewBox="0 0 120 36" fill="none" xmlns="http://www.w3.org/2000/svg">
<path d="M0.428711 19.3076V8.82797H4.66624V19.333C4.63393 19.9321 4.73805 20.5308 4.97073 21.0838C5.15271 21.4263 5.43043 21.7085 5.77003 21.8958C6.11458 22.0898 6.50382 22.1904 6.8992 22.1876C7.30541 22.1897 7.70469 22.0824 8.05516 21.8771C8.40563 21.6717 8.69437 21.3758 8.89109 21.0204C9.0941 20.6651 9.19917 20.2623 9.19558 19.8532C9.19807 19.4481 9.09299 19.0497 8.89109 18.6986C8.68339 18.3552 8.39061 18.0712 8.04106 17.874C7.66924 17.6795 7.25536 17.5793 6.83577 17.5821C6.35725 17.5984 5.88512 17.6971 5.44018 17.874V13.5222C5.88528 13.4177 6.34053 13.3624 6.79772 13.3573C7.9646 13.3486 9.11396 13.6414 10.1344 14.2074C11.1322 14.7572 11.9613 15.5687 12.5323 16.5545C13.1155 17.5507 13.418 18.6862 13.4077 19.8405C13.4122 20.985 13.1185 22.111 12.5557 23.1076C11.9929 24.1042 11.1803 24.9371 10.1979 25.5243C9.21085 26.1073 8.08352 26.4099 6.93726 26.3997C5.79036 26.4094 4.66123 26.1162 3.66396 25.5497C2.68201 24.9852 1.86603 24.1721 1.2981 23.1922C0.730166 22.2122 0.430318 21.1 0.42872 19.9673L0.428711 19.3076Z" fill="white"/>
<path d="M27.6175 20.4623V26.1461H23.3673V20.4369C23.4068 19.8373 23.3024 19.237 23.0628 18.686C22.8808 18.3435 22.6031 18.0614 22.2635 17.8741C21.919 17.6801 21.5297 17.5795 21.1343 17.5823C20.8321 17.5775 20.532 17.6347 20.2527 17.7503C19.9734 17.866 19.7208 18.0376 19.5104 18.2547C19.2933 18.473 19.122 18.7325 19.0065 19.0179C18.8911 19.3033 18.8338 19.6089 18.8379 19.9167C18.8312 20.2185 18.8888 20.5183 19.0069 20.7962C19.125 21.074 19.301 21.3235 19.5231 21.528C19.7434 21.7451 20.0053 21.9154 20.2931 22.0288C20.5808 22.1422 20.8886 22.1962 21.1977 22.1877C21.6763 22.1715 22.1484 22.0727 22.5933 21.8959V26.2476C22.1482 26.3522 21.693 26.4075 21.2358 26.4126C20.0715 26.4199 18.9255 26.1225 17.9118 25.5498C16.9086 25.0027 16.0748 24.1908 15.5012 23.2027C14.9171 22.2115 14.6145 21.0798 14.6258 19.9294C14.6188 18.7715 14.921 17.6328 15.5012 16.6307C16.0588 15.642 16.8687 14.819 17.8484 14.2455C18.8303 13.6617 19.9539 13.3588 21.0963 13.3701C22.2473 13.3593 23.3808 13.6525 24.3823 14.2201C25.3655 14.7806 26.1838 15.5901 26.7548 16.5673C27.3257 17.5495 27.6236 18.6665 27.6175 19.8025L27.6175 20.4623Z" fill="white"/>
<path d="M34.2782 26.1462H30.0407V19.6757C30.0346 19.0063 30.1027 18.3383 30.2436 17.6838C30.3617 17.1065 30.5762 16.5532 30.878 16.0472C31.1798 15.5598 31.5517 15.1194 31.9818 14.7404C33.0277 13.8193 34.382 13.3257 35.7753 13.3575C35.9106 13.3575 36.1051 13.3702 36.3589 13.3955V17.6965C36.147 17.6197 35.9244 17.5768 35.6992 17.5696C35.4175 17.5565 35.1395 17.6381 34.9096 17.8014C34.6796 17.9646 34.511 18.2002 34.4304 18.4704C34.3013 18.9497 34.2499 19.4466 34.2782 19.9421V26.1462Z" fill="white"/>
<path d="M41.9795 19.9042V26.1463H37.742V19.9042C37.7277 19.1426 37.7914 18.3817 37.9323 17.6331C38.0675 17.0372 38.2989 16.4673 38.6174 15.9458C39.1163 15.1405 39.8216 14.4835 40.66 14.0427C41.5785 13.5704 42.6022 13.3401 43.6344 13.3734C44.6667 13.4067 45.6734 13.7025 46.5596 14.233C47.4688 14.7922 48.1858 15.6155 48.6149 16.5928C48.8242 17.0174 48.9695 17.4706 49.0463 17.9376C49.1348 18.5892 49.173 19.2467 49.1604 19.9042V26.1463H44.9229V19.4728C44.906 18.1872 44.4154 17.5443 43.4512 17.5443C42.4701 17.5443 41.9795 18.1872 41.9795 19.4728V19.9042Z" fill="white"/>
<path d="M50.9871 19.8915C50.9812 19.024 51.1539 18.1646 51.4946 17.3667C51.8263 16.5855 52.3043 15.875 52.9028 15.2733C53.503 14.673 54.214 14.1947 54.9962 13.865C56.6192 13.2009 58.4388 13.2055 60.0584 13.8777C60.8329 14.1966 61.5359 14.6667 62.1264 15.2606C62.7196 15.8544 63.1934 16.5564 63.522 17.3286C63.8651 18.1391 64.0379 19.0114 64.0295 19.8915C64.0371 20.7591 63.8643 21.6189 63.522 22.4162C63.1914 23.1874 62.7179 23.8891 62.1264 24.4842C61.525 25.0798 60.8142 25.5537 60.033 25.8798C59.1056 26.2756 58.0985 26.4496 57.092 26.3879C56.0855 26.3262 55.1072 26.0306 54.235 25.5246C53.2505 24.9545 52.4325 24.1366 51.8625 23.1521C51.2795 22.165 50.9769 21.0377 50.9871 19.8915ZM55.2119 19.8915C55.2064 20.2946 55.3164 20.6908 55.5291 21.0333C55.7269 21.3834 56.0164 21.6729 56.3664 21.8707C56.7139 22.0702 57.1076 22.1752 57.5083 22.1752C57.909 22.1752 58.3027 22.0702 58.6501 21.8707C58.9984 21.6662 59.2905 21.3785 59.5002 21.0333C59.703 20.6872 59.8082 20.2926 59.8047 19.8915C59.8072 19.4865 59.7021 19.088 59.5002 18.7369C59.2928 18.3942 59.0055 18.1069 58.6628 17.8996C58.3117 17.6977 57.9133 17.5926 57.5083 17.5951C57.1071 17.5915 56.7125 17.6967 56.3664 17.8996C56.02 18.1022 55.7317 18.3905 55.5291 18.7369C55.3174 19.0845 55.2075 19.4845 55.2119 19.8915Z" fill="#03CEA4"/>
<path d="M70.0816 26.1458H65.8441V19.8656C65.8264 19.0378 65.9117 18.2111 66.0978 17.4043C66.304 16.6567 66.6692 15.9625 67.1685 15.3691C67.6677 14.7757 68.2892 14.2971 68.9905 13.9661C69.7809 13.5795 70.6481 13.3757 71.5279 13.3698C72.1273 13.3628 72.7235 13.4571 73.2915 13.6489C73.9024 13.8803 74.4821 14.1871 75.0169 14.5624C75.5807 14.1759 76.1901 13.8606 76.8312 13.6235C77.409 13.4377 78.0133 13.3477 78.6201 13.3571C79.5389 13.3544 80.4461 13.5628 81.2717 13.9661C82.0757 14.3432 82.7733 14.9143 83.3017 15.6281C83.5671 15.9941 83.7885 16.3902 83.9614 16.808C84.1315 17.2472 84.259 17.7018 84.3421 18.1655C84.422 18.7286 84.4602 19.2969 84.4562 19.8656V26.1458H80.2187V19.4216C80.2102 18.1698 79.7239 17.5439 78.7597 17.5439C77.7616 17.5439 77.2626 18.2036 77.2626 19.5231V26.1458H73.0251V19.5231C73.0596 19.002 72.931 18.4832 72.6571 18.0387C72.5249 17.8688 72.3524 17.7346 72.1552 17.6482C71.9581 17.5619 71.7425 17.526 71.528 17.5439C71.3217 17.5281 71.1147 17.5626 70.9247 17.6444C70.7347 17.7261 70.5673 17.8527 70.4369 18.0133C70.1631 18.4669 70.0389 18.995 70.0816 19.5231L70.0816 26.1458Z" fill="white"/>
<path d="M92.5886 22.162H97.2702V26.1458H86.0039L90.6855 17.5565H86.3591V13.5728H97.2702L92.5886 22.162Z" fill="white"/>
<path d="M112.835 31.8365C112.894 32.4069 112.906 32.9812 112.871 33.5535C112.826 34.2751 112.723 34.5906 112.489 34.829C112.364 34.9537 112.211 35.0477 112.043 35.1037C111.815 35.1901 111.568 35.2151 111.327 35.1761C111.086 35.1371 110.859 35.0355 110.67 34.8815C110.314 34.5203 110.024 34.099 109.815 33.637C109.063 32.1484 108.657 30.5423 108.412 28.8994C108.36 28.5546 108.315 28.209 108.276 27.8626C108.15 26.7739 108.088 25.6788 108.061 24.5836C108.046 24.2594 107.95 23.9441 107.783 23.666C107.292 22.851 107.197 21.9925 107.317 21.069C107.562 19.0272 108.559 17.1501 110.114 15.8042C108.838 14.3427 108.237 12.7104 108.569 10.8046C108.771 9.52549 109.422 8.35997 110.404 7.51654C112.631 5.59971 115.772 5.59898 117.934 7.46677C119.893 9.15948 120.876 12.4533 118.567 15.4674C118.721 15.6574 118.89 15.858 119.049 16.0658C120.299 17.6915 120.309 19.6508 119.123 21.3053C118.963 21.5615 118.899 21.866 118.943 22.1648C119.335 24.6898 119.511 27.2425 119.166 29.783C119.038 30.8819 118.817 31.9679 118.505 33.0293C118.247 33.8473 117.826 34.9347 116.915 35.1862C116.686 35.2567 116.441 35.2588 116.21 35.1924C115.817 35.0707 115.571 34.7496 115.352 34.3581C114.776 33.3257 114.558 32.7519 114.085 32.0356C113.774 31.5658 113.302 31.1465 112.915 31.2553C112.768 31.2966 112.797 31.6032 112.835 31.8365ZM109.262 24.8333C109.307 26.4452 109.401 28.0748 109.742 29.6542C109.919 30.4737 110.147 31.2812 110.399 32.0808C110.522 32.4735 110.629 32.8859 110.788 33.2659C110.879 33.4843 111.06 33.9373 111.331 33.985C111.43 33.99 111.527 33.9563 111.601 33.8911C111.675 33.8259 111.721 33.7344 111.728 33.636C111.802 33.0665 111.688 32.7682 111.611 31.2452C111.593 30.8833 111.644 30.6026 111.845 30.42C111.966 30.3258 112.105 30.2574 112.253 30.2189C112.402 30.1804 112.556 30.1727 112.708 30.1963C113.389 30.2654 114.034 30.5357 114.561 30.9728C114.893 31.2827 115.178 31.6396 115.406 32.0321C116.204 33.415 116.155 34.0022 116.657 34.0022C117.254 34.0022 117.712 31.9076 117.958 29.3611C118.172 27.0897 118.093 24.8001 117.723 22.5488C117.037 22.653 116.811 22.7412 116.131 22.8553C115.986 22.8796 115.37 22.9428 115.259 23.0336C113.533 24.4393 111.537 24.9519 109.262 24.8333ZM111.273 15.1379C112.295 14.5488 112.954 14.6351 113.768 15.4501C113.889 15.6111 114.025 15.7602 114.174 15.8955C114.373 16.0277 114.63 16.1986 114.839 16.1723C117.482 15.8396 119.273 13.1136 118.554 10.559C118.295 9.62064 117.745 8.78849 116.984 8.18229C116.222 7.5761 115.288 7.2271 114.315 7.18549C112.584 7.08375 110.664 8.32459 109.987 9.98187C109.243 11.8058 109.723 13.7689 111.273 15.1379ZM112.283 15.8329C111.795 16.0822 112.345 18.3487 112.743 19.422C113.806 22.2932 116.956 22.336 118.384 20.1827C119.036 19.1992 118.91 17.4634 118.12 16.7705C117.434 17.4741 117.112 18.0855 116.253 18.7578C115.801 19.1122 115.291 19.0375 114.882 18.7103C114.165 18.1366 113.668 17.3251 113.158 16.5624C112.865 16.1251 112.548 15.7319 112.283 15.8329ZM113.607 22.9175C113.308 22.7261 113.026 22.5096 112.764 22.2704C111.951 21.4523 111.328 21.2706 110.36 21.5538C109.951 21.6735 109.504 21.6496 109.372 21.1378C109.248 20.656 109.663 20.502 110.001 20.3154C110.274 20.163 110.535 19.9917 110.784 19.8028C110.881 19.7302 111.006 19.58 110.989 19.4892C110.844 18.7135 110.67 17.9434 110.479 17.0544C109.063 18.6087 108.328 20.2796 108.478 22.2748C108.53 22.9726 109.162 23.7166 109.748 23.7646C111.09 23.8639 112.431 23.5695 113.607 22.9175Z" fill="white"/>
<path d="M113.819 3.62038C113.789 3.37698 113.826 3.12998 113.924 2.90546C114.023 2.68094 114.18 2.48723 114.38 2.34481C114.557 2.21483 114.725 2.07268 114.882 1.91939C114.957 1.8558 115.014 1.7741 115.048 1.68211C115.082 1.59013 115.092 1.49094 115.077 1.39407C115.058 1.33324 115.026 1.27686 114.985 1.22826C114.944 1.17965 114.893 1.13981 114.836 1.11108C114.746 1.06024 114.643 1.03556 114.539 1.03979C114.368 1.06227 114.208 1.13523 114.079 1.24929C113.961 1.33247 113.851 1.42747 113.751 1.53284C113.55 1.29497 113.348 1.0571 113.147 0.81923C113.423 0.432561 113.831 0.160017 114.294 0.0527682C114.527 -0.00717847 114.77 -0.0161692 115.006 0.0264114C115.243 0.068992 115.467 0.162139 115.664 0.299487C115.835 0.441944 115.973 0.620716 116.066 0.822807C116.159 1.0249 116.206 1.24523 116.204 1.46779C116.21 1.67392 116.172 1.879 116.094 2.06984C115.98 2.30474 115.805 2.50539 115.589 2.65165C115.418 2.75952 115.269 2.89892 115.15 3.06243C115.062 3.23449 115.025 3.42812 115.044 3.62037C114.669 3.63681 114.195 3.60395 113.819 3.62038Z" fill="white"/>
<path d="M115.044 4.11029V5.23285H113.809V4.11029H115.044Z" fill="white"/>
</svg>
