<svg xmlns="http://www.w3.org/2000/svg" viewBox="0 0 330 330"><defs><style>.cls-1{fill:#0d3b66;}.cls-2{fill:#fff;}.cls-3{fill:#03cea4;}</style></defs><g id="Layer_2" data-name="Layer 2"><circle class="cls-1" cx="165" cy="165" r="152.37835"/><path class="cls-2" d="M155.75038,218.71525a57.99278,57.99278,0,0,1,.19775,9.514c-.249,3.99823-.81641,5.746-2.11469,7.06708a6.349,6.349,0,0,1-2.4696,1.52226,7.726,7.726,0,0,1-7.60948-1.23107,23.87426,23.87426,0,0,1-4.73979-6.89587c-4.16422-8.24844-6.41271-17.14783-7.7727-26.25111q-.4281-2.86547-.75449-5.74488c-.69481-6.03211-1.03723-12.1001-1.1894-18.16862a10.84485,10.84485,0,0,0-1.53912-5.08456c-2.71985-4.51566-3.24847-9.27252-2.5816-14.38965a45.79556,45.79556,0,0,1,15.49694-29.172c-7.07153-8.09835-10.40075-17.14257-8.56121-27.70245a30.2264,30.2264,0,0,1,10.1698-18.21918c12.33892-10.62112,29.74206-10.62518,41.72125-.27579,10.85626,9.37925,16.29992,27.63,3.50873,44.331.85015,1.05279,1.78668,2.16452,2.67163,3.31589,6.92382,9.00821,6.982,19.8645.40686,29.03195a7.08,7.08,0,0,0-.999,4.76223c2.17255,13.991,3.151,28.13559,1.23839,42.21224a108.09541,108.09541,0,0,1-3.66262,17.98774c-1.429,4.5326-3.76485,10.55775-8.80868,11.95106a6.85276,6.85276,0,0,1-3.909.03436c-2.17517-.674-3.54051-2.45315-4.751-4.6228-3.19152-5.72052-4.39884-8.8997-7.02258-12.86893-1.72059-2.60293-4.33824-4.92646-6.48529-4.32352C155.37728,215.72333,155.54188,217.42238,155.75038,218.71525Zm-19.7948-38.80438c.24774,8.93145.77007,17.961,2.65764,26.71212.9795,4.54118,2.2454,9.01546,3.638,13.44578.684,2.176,1.27747,4.46094,2.15553,6.56675.50455,1.21,1.51114,3.72006,3.01269,3.98452a2.09875,2.09875,0,0,0,2.19857-1.93419c.40713-3.15521-.22535-4.80825-.65-13.24681-.10092-2.00548.18152-3.56076,1.3-4.57257a6.21062,6.21062,0,0,1,4.77647-1.23944,19.10181,19.10181,0,0,1,10.26925,4.30237,25.774,25.774,0,0,1,4.6847,5.86935c4.42113,7.663,4.149,10.9165,6.9284,10.9165,3.30884,0,5.84967-11.60632,7.20917-25.71594a147.24,147.24,0,0,0-1.30188-37.747c-3.79822.57764-5.0527,1.066-8.81906,1.69823-.804.135-4.21586.48473-4.8339.98817C159.61982,177.72758,148.55781,180.56764,135.95558,179.91087Zm11.14108-53.72194c5.6621-3.26425,9.31186-2.786,13.82434,1.72989a17.6105,17.6105,0,0,0,2.24742,2.46759c1.10479.733,2.52722,1.67968,3.68636,1.53377,14.64388-1.84319,24.57055-16.948,20.58409-31.10259a25.49351,25.49351,0,0,0-23.48641-18.69275c-9.59162-.56372-20.23241,6.31173-23.98023,15.49461C135.84744,107.726,138.50565,118.60319,147.09666,126.18893Zm5.59646,3.85109c-2.70745,1.38114.34216,13.93967,2.54575,19.88707,5.89445,15.90889,23.34349,16.14619,31.257,4.21468,3.61444-5.44964,2.91729-15.0676-1.46282-18.90674-3.79808,3.8988-5.58424,7.28622-10.34149,11.01138-2.50779,1.96372-5.33244,1.55006-7.5977-.26309-3.97116-3.17857-6.72547-7.6752-9.556-11.90155C155.91511,131.6588,154.16212,129.48,152.69312,130.04Zm7.33362,39.25528a34.67264,34.67264,0,0,1-4.66852-3.58578c-4.5047-4.53284-7.95965-5.53961-13.32171-3.97019-2.265.66294-4.74494.53034-5.47418-2.30533-.68659-2.6698,1.61206-3.523,3.48455-4.5567a37.252,37.252,0,0,0,4.34156-2.84015c.536-.40258,1.22809-1.23489,1.13421-1.73812-.80212-4.29789-1.76861-8.56513-2.82513-13.49073-7.84882,8.61191-11.91913,17.87064-11.09,28.92557.29,3.86691,3.79077,7.989,7.04059,8.25543A38.26915,38.26915,0,0,0,160.02674,169.2953Z"/><path class="cls-2" d="M161.20594,62.37068a7.54472,7.54472,0,0,1,3.10626-7.06787,26.2414,26.2414,0,0,0,2.78388-2.35721,3.17318,3.17318,0,0,0,1.07684-2.91083,2.64622,2.64622,0,0,0-1.33191-1.568,3.11176,3.11176,0,0,0-1.64874-.395,4.78327,4.78327,0,0,0-2.5459,1.16083,11.87692,11.87692,0,0,0-1.8183,1.57111q-1.67394-1.977-3.348-3.95408a10.80828,10.80828,0,0,1,6.35547-4.24694,9.24958,9.24958,0,0,1,7.59351,1.36706,8.30143,8.30143,0,0,1,2.98761,6.47354,8.18537,8.18537,0,0,1-.60663,3.33591,8.257,8.257,0,0,1-2.80048,3.22382,8.83979,8.83979,0,0,0-2.43249,2.27612,5.59658,5.59658,0,0,0-.58478,3.09149C165.91377,62.46171,163.28449,62.27965,161.20594,62.37068Z"/><path class="cls-2" d="M167.99231,65.08514v6.22008h-6.84654V65.08514Z"/><path class="cls-2" d="M86.73193,276.1923V259.25284h6.84961v16.98047a6.408,6.408,0,0,0,.49219,2.83008,3.2295,3.2295,0,0,0,1.292,1.3125,3.66877,3.66877,0,0,0,1.8252.47168,3.65843,3.65843,0,0,0,3.21972-1.88672,3.73664,3.73664,0,0,0,.49219-1.88672,3.698,3.698,0,0,0-.49219-1.86621,3.77145,3.77145,0,0,0-1.374-1.333,4.143,4.143,0,0,0-1.94824-.47168,6.726,6.726,0,0,0-2.25586.47168v-7.03418a10.08576,10.08576,0,0,1,2.19434-.2666,10.952,10.952,0,0,1,5.39355,1.374,10.12959,10.12959,0,0,1,3.876,3.79395,10.3329,10.3329,0,0,1,1.415,5.31152,10.65577,10.65577,0,0,1-5.18848,9.1875,10.186,10.186,0,0,1-5.27051,1.415,10.53189,10.53189,0,0,1-5.291-1.374,10.42505,10.42505,0,0,1-5.2295-9.02344Z"/><path class="cls-2" d="M130.68018,278.05851v9.1875h-6.87012v-9.22852a6.09313,6.09313,0,0,0-.49219-2.83008,3.2295,3.2295,0,0,0-1.292-1.3125,3.66877,3.66877,0,0,0-1.8252-.47168,3.57665,3.57665,0,0,0-2.625,1.08692,3.73812,3.73812,0,0,0-1.08691,2.68652,3.43572,3.43572,0,0,0,1.10742,2.60449,3.7113,3.7113,0,0,0,2.707,1.06641,6.726,6.726,0,0,0,2.25586-.47168v7.03418a10.08574,10.08574,0,0,1-2.19433.2666,10.78621,10.78621,0,0,1-5.37305-1.39453,10.09417,10.09417,0,0,1-3.89649-3.794,10.224,10.224,0,0,1-1.415-5.291,10.515,10.515,0,0,1,1.415-5.332,10.37077,10.37077,0,0,1,3.794-3.85547,10.078,10.078,0,0,1,5.25-1.415,10.57115,10.57115,0,0,1,5.31152,1.374,10.41415,10.41415,0,0,1,3.835,3.79395,10.29677,10.29677,0,0,1,1.39454,5.22949Z"/><path class="cls-2" d="M141.44678,287.246h-6.84961V276.787a14.66317,14.66317,0,0,1,.32812-3.21972,8.48152,8.48152,0,0,1,1.02539-2.64551,9.44244,9.44244,0,0,1,1.78418-2.11231,8.9686,8.9686,0,0,1,6.13184-2.23535q.32813,0,.94336.06152v6.95215a3.45261,3.45261,0,0,0-1.06641-.20508,2.04108,2.04108,0,0,0-2.05078,1.45606,7.50029,7.50029,0,0,0-.24609,2.37891V287.246Z"/><path class="cls-2" d="M153.895,277.15616V287.246h-6.84961V277.15616a18.02281,18.02281,0,0,1,.30762-3.6709,9.09839,9.09839,0,0,1,1.10742-2.72754,8.583,8.583,0,0,1,3.30176-3.07617,9.82242,9.82242,0,0,1,9.53613.30762,8.4818,8.4818,0,0,1,3.32227,3.81445,7.76345,7.76345,0,0,1,.69726,2.17383,20.66939,20.66939,0,0,1,.18457,3.17871V287.246h-6.84961V276.4589q-.041-3.1172-2.3789-3.11719-2.37891,0-2.37891,3.11719Z"/><path class="cls-3" d="M168.45557,277.13565a10.218,10.218,0,0,1,.82031-4.08105,10.76245,10.76245,0,0,1,2.27637-3.38379,10.615,10.615,0,0,1,3.38379-2.27637,10.73733,10.73733,0,0,1,8.18261.02051,10.17729,10.17729,0,0,1,3.34278,2.23535,10.60467,10.60467,0,0,1,2.25586,3.34278,10.37281,10.37281,0,0,1,.82031,4.14257,10.12332,10.12332,0,0,1-.82031,4.08106,10.75414,10.75414,0,0,1-2.25586,3.34277,10.63023,10.63023,0,0,1-3.38379,2.25586,10.47981,10.47981,0,0,1-9.37207-.57422,10.52642,10.52642,0,0,1-3.835-3.835A10.186,10.186,0,0,1,168.45557,277.13565Zm6.8291,0a3.41059,3.41059,0,0,0,.51269,1.84571,3.57453,3.57453,0,0,0,1.35352,1.35351,3.70678,3.70678,0,0,0,3.69141,0,3.94366,3.94366,0,0,0,1.374-1.35351,3.58771,3.58771,0,0,0,.49219-1.84571,3.69806,3.69806,0,0,0-.49219-1.86621,4.006,4.006,0,0,0-1.35352-1.35351,3.698,3.698,0,0,0-1.86621-.49219,3.5876,3.5876,0,0,0-1.8457.49219,3.77717,3.77717,0,0,0-1.35352,1.35351A3.51484,3.51484,0,0,0,175.28467,277.13565Z"/><path class="cls-2" d="M199.31982,287.246h-6.84961V277.09464a16.16354,16.16354,0,0,1,.41016-3.97852,8.70537,8.70537,0,0,1,4.67578-5.55761,9.48014,9.48014,0,0,1,4.10156-.96387,8.598,8.598,0,0,1,2.85059.45117,12.66617,12.66617,0,0,1,2.78906,1.47656A13.42349,13.42349,0,0,1,210.23,267.0048a8.99206,8.99206,0,0,1,2.8916-.43067,9.70144,9.70144,0,0,1,4.28613.98438A8.65548,8.65548,0,0,1,220.689,270.245a9.3215,9.3215,0,0,1,1.06641,1.90723,11.87527,11.87527,0,0,1,.61524,2.19433,18.6283,18.6283,0,0,1,.18457,2.74805V287.246h-6.84961V276.37687q-.02052-3.03516-2.3584-3.03516-2.41992,0-2.41992,3.19922V287.246h-6.84961V276.54093a4.06113,4.06113,0,0,0-.59473-2.39942,2.093,2.093,0,0,0-1.8252-.7998,2.0697,2.0697,0,0,0-1.76367.75879,4.08512,4.08512,0,0,0-.57422,2.44043V287.246Z"/><path class="cls-2" d="M235.70068,280.80655h7.56739V287.246H225.05713l7.56738-13.88379h-6.99316v-6.43946h17.63672Z"/></g></svg>